<?xml version="1.0" encoding="UTF-8"?>
<svg id="Layer_23" data-name="Layer 23" xmlns="http://www.w3.org/2000/svg" viewBox="0 0 841.89 595.27">
  <defs>
    <style>
      .cls-1 {
        fill: #ff4e00;
        stroke-width: 0px;
      }
    </style>
  </defs>
  <path class="cls-1" d="M420.94,99.67c-113.5,0-205.35,91.85-205.35,205.35s91.84,205.35,205.35,205.35,205.35-91.85,205.35-205.35-91.85-205.35-205.35-205.35ZM420.94,441.92c-75.67,0-136.9-61.23-136.9-136.9s61.23-136.9,136.9-136.9,136.9,61.23,136.9,136.9-61.23,136.9-136.9,136.9Z"/>
  <path class="cls-1" d="M420.94,234.49c-38.9,0-70.54,31.64-70.54,70.54s31.64,70.54,70.54,70.54,70.54-31.64,70.54-70.54-31.64-70.54-70.54-70.54ZM420.94,371.38c-36.59,0-66.36-29.77-66.36-66.36s29.77-66.36,66.36-66.36,66.36,29.77,66.36,66.36-29.77,66.36-66.36,66.36Z"/>
</svg>