<svg width="411" height="411" viewBox="0 0 411 411" fill="none" xmlns="http://www.w3.org/2000/svg">
<path d="M205.35 0C91.85 0 0 91.85 0 205.35C0 318.85 91.84 410.7 205.35 410.7C318.86 410.7 410.7 318.85 410.7 205.35C410.7 91.85 318.85 0 205.35 0ZM205.35 342.25C129.68 342.25 68.45 281.02 68.45 205.35C68.45 129.68 129.68 68.45 205.35 68.45C281.02 68.45 342.25 129.68 342.25 205.35C342.25 281.02 281.02 342.25 205.35 342.25Z" fill="#FF4E00"/>
<path d="M204.94 134.49C166.04 134.49 134.4 166.13 134.4 205.03C134.4 243.93 166.04 275.57 204.94 275.57C243.84 275.57 275.48 243.93 275.48 205.03C275.48 166.13 243.84 134.49 204.94 134.49ZM204.94 271.38C168.35 271.38 138.58 241.61 138.58 205.02C138.58 168.43 168.35 138.66 204.94 138.66C241.53 138.66 271.3 168.43 271.3 205.02C271.3 241.61 241.53 271.38 204.94 271.38Z" fill="#FF4E00"/>
</svg>
