<?xml version="1.0" encoding="UTF-8"?>
<svg id="Layer_9" data-name="Layer 9" xmlns="http://www.w3.org/2000/svg" viewBox="0 0 841.89 595.27">
  <defs>
    <style>
      .cls-1 {
        fill: #f95300;
      }

      .cls-1, .cls-2 {
        stroke-width: 0px;
      }

      .cls-2 {
        fill: #fff;
      }
    </style>
  </defs>
  <g>
    <polygon class="cls-2" points="340.81 303.88 299.48 238.9 273.8 238.9 273.8 323.23 297.97 323.23 297.97 277.86 319.12 315.88 362.5 315.88 383.65 277.86 383.65 323.23 407.81 323.23 407.81 238.9 382.14 238.9 340.81 303.88"/>
    <path class="cls-2" d="M457.32,239.1l-33.08,84.33h24.34l10.34-16.33c2.26-3.57,6.18-5.74,10.4-5.77l12.53-.09,9.17,22.19h24.34l-33.08-84.33h-24.97ZM459.82,291.6l9.99-29.34,9.99,29.34h-19.97Z"/>
    <path class="cls-2" d="M197.74,238.9l-33.08,84.33h24.34l10.33-16.32c2.27-3.58,6.19-5.76,10.43-5.79l12.51-.09,9.17,22.19h24.34l-33.08-84.33h-24.97ZM200.23,291.39l9.99-29.34,9.99,29.34h-19.97Z"/>
    <path class="cls-2" d="M700.74,239.15h-24.97l-33.08,84.33h24.34l10.34-16.33c2.26-3.57,6.18-5.74,10.4-5.77l12.53-.09,9.17,22.19h24.34l-33.08-84.33ZM678.27,291.64l9.99-29.34,9.99,29.34h-19.97Z"/>
    <path class="cls-1" d="M507.17,239.15v17.17h25.09v67.1h21.72v-60.86c0-1.41-.43-2.56-1.28-3.43-.85-.87-1.99-1.31-3.4-1.31h-.56c-.41,0-.75-.34-.75-.75s.34-.75.75-.75h55.3v67.1h21.72v-60.86c0-1.41-.43-2.56-1.28-3.43-.85-.87-1.99-1.31-3.4-1.31h-.56c-.41,0-.75-.34-.75-.75s.34-.75.75-.75h30.21v-17.17h-143.56Z"/>
    <path class="cls-2" d="M131.38,238.94h-56.13v84.34h56.13c9.4,0,16.54-2.43,21.41-7.3,4.87-4.87,7.3-12,7.3-21.41v-26.92c0-9.4-2.43-16.54-7.3-21.41-4.87-4.87-12.01-7.3-21.41-7.3ZM137.63,294.57c0,7.49-3.75,11.24-11.24,11.24h-28.67v-49.39h28.67c7.49,0,11.24,3.75,11.24,11.24v26.92Z"/>
  </g>
  <g>
    <path class="cls-2" d="M76.91,350.21v10.29h9.83v1.33h-9.83v10.36h10.89v1.33h-12.47v-24.66h12.47v1.33h-10.89Z"/>
    <path class="cls-2" d="M110.2,356.16c1.43,1.39,2.14,3.46,2.14,6.2v11.17h-1.55v-11.06c0-2.27-.57-4.01-1.72-5.22-1.15-1.21-2.7-1.81-4.67-1.81s-3.7.66-4.93,1.97c-1.23,1.31-1.84,3.25-1.84,5.83v10.29h-1.58v-19.07h1.58v4.04c.54-1.43,1.43-2.52,2.69-3.28,1.25-.76,2.7-1.14,4.34-1.14,2.27,0,4.12.7,5.55,2.09Z"/>
    <path class="cls-2" d="M134.75,355.67c1.41.97,2.39,2.22,2.95,3.74v-4.95h1.58v19.67c0,1.76-.39,3.3-1.16,4.62-.77,1.32-1.81,2.34-3.13,3.06-1.31.71-2.77,1.07-4.39,1.07-2.39,0-4.37-.57-5.94-1.72s-2.6-2.69-3.09-4.64h1.58c.47,1.52,1.35,2.73,2.63,3.64,1.29.9,2.89,1.35,4.81,1.35,1.33,0,2.54-.3,3.62-.9,1.08-.6,1.93-1.45,2.55-2.56.62-1.11.93-2.42.93-3.92v-5.58c-.56,1.52-1.55,2.78-2.97,3.78-1.42,1-3.12,1.49-5.11,1.49-1.78,0-3.37-.4-4.76-1.21-1.39-.81-2.48-1.95-3.27-3.44-.79-1.49-1.18-3.21-1.18-5.18s.39-3.69,1.18-5.16c.78-1.48,1.87-2.61,3.27-3.41,1.39-.8,2.98-1.19,4.76-1.19,2.01,0,3.72.49,5.13,1.46ZM136.67,359.57c-.69-1.28-1.63-2.26-2.83-2.95-1.19-.69-2.53-1.04-4-1.04s-2.9.33-4.07,1-2.08,1.63-2.74,2.9c-.66,1.26-.98,2.76-.98,4.5s.33,3.23.98,4.5c.65,1.26,1.57,2.24,2.76,2.92,1.18.68,2.53,1.02,4.06,1.02s2.82-.34,4.02-1.04c1.21-.69,2.15-1.67,2.83-2.95.68-1.28,1.02-2.76,1.02-4.44s-.35-3.13-1.04-4.41Z"/>
    <path class="cls-2" d="M165.62,364.61h-16.47c.05,1.71.42,3.15,1.12,4.32.7,1.17,1.63,2.05,2.77,2.63,1.15.59,2.4.88,3.76.88,1.87,0,3.44-.46,4.71-1.39,1.26-.92,2.06-2.18,2.39-3.78h1.65c-.37,1.94-1.33,3.52-2.88,4.72-1.55,1.21-3.5,1.81-5.87,1.81-1.78,0-3.37-.4-4.78-1.19-1.41-.8-2.51-1.94-3.3-3.42-.8-1.49-1.19-3.23-1.19-5.22s.39-3.72,1.18-5.2c.78-1.47,1.88-2.6,3.28-3.39,1.41-.78,3.01-1.18,4.81-1.18s3.41.39,4.76,1.18,2.37,1.83,3.07,3.13c.7,1.3,1.05,2.7,1.05,4.2,0,.84-.02,1.48-.07,1.9ZM163.22,359.02c-.67-1.17-1.58-2.04-2.72-2.62-1.15-.57-2.39-.86-3.72-.86s-2.57.29-3.71.86c-1.14.57-2.06,1.45-2.77,2.62-.71,1.17-1.1,2.6-1.14,4.28h14.96c.07-1.69-.23-3.11-.9-4.28Z"/>
    <path class="cls-2" d="M188.1,356.16c1.43,1.39,2.14,3.46,2.14,6.2v11.17h-1.55v-11.06c0-2.27-.57-4.01-1.72-5.22-1.15-1.21-2.7-1.81-4.67-1.81s-3.7.66-4.93,1.97-1.84,3.25-1.84,5.83v10.29h-1.58v-19.07h1.58v4.04c.54-1.43,1.43-2.52,2.69-3.28,1.25-.76,2.7-1.14,4.34-1.14,2.27,0,4.12.7,5.55,2.09Z"/>
    <path class="cls-2" d="M213.46,356.16c1.43,1.39,2.14,3.46,2.14,6.2v11.17h-1.55v-11.06c0-2.27-.57-4.01-1.72-5.22-1.15-1.21-2.7-1.81-4.67-1.81s-3.7.66-4.93,1.97c-1.23,1.31-1.84,3.25-1.84,5.83v10.29h-1.58v-25.99h1.58v10.96c.54-1.43,1.44-2.52,2.7-3.28,1.26-.76,2.72-1.14,4.35-1.14,2.25,0,4.09.7,5.51,2.09Z"/>
    <path class="cls-2" d="M224.86,358.81c.78-1.48,1.87-2.61,3.27-3.41,1.39-.8,2.98-1.19,4.76-1.19,2.01,0,3.72.49,5.13,1.47,1.41.98,2.39,2.24,2.95,3.76v-4.99h1.58v19.07h-1.58v-5.02c-.56,1.55-1.55,2.82-2.97,3.81-1.42,1-3.12,1.49-5.11,1.49-1.78,0-3.37-.4-4.76-1.21-1.39-.81-2.48-1.95-3.27-3.44-.79-1.49-1.18-3.21-1.18-5.18s.39-3.69,1.18-5.16ZM239.93,359.57c-.69-1.28-1.63-2.26-2.83-2.95-1.19-.69-2.53-1.04-4-1.04s-2.9.33-4.07,1-2.08,1.63-2.74,2.9c-.66,1.26-.98,2.76-.98,4.5s.33,3.23.98,4.5c.65,1.26,1.57,2.24,2.76,2.92,1.18.68,2.53,1.02,4.06,1.02s2.82-.34,4.02-1.04c1.21-.69,2.15-1.67,2.83-2.95.68-1.28,1.02-2.76,1.02-4.44s-.35-3.13-1.04-4.41Z"/>
    <path class="cls-2" d="M255.86,355.18c1.19-.74,2.72-1.11,4.57-1.11v1.65h-.53c-1.87,0-3.43.53-4.67,1.6-1.24,1.07-1.86,2.8-1.86,5.22v10.99h-1.58v-19.07h1.58v3.93c.47-1.4,1.3-2.48,2.49-3.21Z"/>
    <path class="cls-2" d="M267.41,349.84c-.26-.25-.39-.58-.39-1,0-.4.13-.73.39-.98.26-.26.57-.39.95-.39s.69.13.95.39c.26.26.39.59.39.98,0,.42-.13.75-.39,1s-.57.37-.95.37-.69-.12-.95-.37ZM269.13,354.46v19.07h-1.58v-19.07h1.58Z"/>
    <path class="cls-2" d="M278.6,358.81c.78-1.48,1.87-2.61,3.27-3.41,1.39-.8,2.98-1.19,4.76-1.19,2.01,0,3.72.49,5.13,1.47,1.41.98,2.39,2.24,2.95,3.76v-4.99h1.58v19.07h-1.58v-5.02c-.56,1.55-1.55,2.82-2.97,3.81-1.42,1-3.12,1.49-5.11,1.49-1.78,0-3.37-.4-4.76-1.21-1.39-.81-2.48-1.95-3.27-3.44-.79-1.49-1.18-3.21-1.18-5.18s.39-3.69,1.18-5.16ZM293.66,359.57c-.69-1.28-1.63-2.26-2.83-2.95-1.19-.69-2.53-1.04-4-1.04s-2.9.33-4.07,1-2.08,1.63-2.74,2.9c-.66,1.26-.98,2.76-.98,4.5s.33,3.23.98,4.5c.65,1.26,1.57,2.24,2.76,2.92,1.18.68,2.53,1.02,4.06,1.02s2.82-.34,4.02-1.04c1.21-.69,2.15-1.67,2.83-2.95s1.02-2.76,1.02-4.44-.35-3.13-1.04-4.41Z"/>
  </g>
</svg>