<svg width="659" height="144" viewBox="0 0 659 144" fill="none" xmlns="http://www.w3.org/2000/svg">
<path d="M265.56 64.99L224.23 0.0100098H198.55V84.34H222.72V38.97L243.87 76.99H287.25L308.4 38.97V84.34H332.56V0.0100098H306.89L265.56 64.99Z" fill="white"/>
<path d="M382.07 0.210022L348.99 84.54H373.33L383.67 68.21C385.93 64.64 389.85 62.47 394.07 62.44L406.6 62.35L415.77 84.54H440.11L407.03 0.210022H382.06H382.07ZM384.57 52.71L394.56 23.37L404.55 52.71H384.58H384.57Z" fill="white"/>
<path d="M122.49 0.00999451L89.41 84.34H113.75L124.08 68.02C126.35 64.44 130.27 62.26 134.51 62.23L147.02 62.14L156.19 84.33H180.53L147.45 0H122.48L122.49 0.00999451ZM124.98 52.5L134.97 23.16L144.96 52.5H124.99H124.98Z" fill="white"/>
<path d="M625.49 0.26001H600.52L567.44 84.59H591.78L602.12 68.26C604.38 64.69 608.3 62.52 612.52 62.49L625.05 62.4L634.22 84.59H658.56L625.48 0.26001H625.49ZM603.02 52.75L613.01 23.41L623 52.75H603.03H603.02Z" fill="white"/>
<path d="M431.92 0.26001V17.43H457.01V84.53H478.73V23.67C478.73 22.26 478.3 21.11 477.45 20.24C476.6 19.37 475.46 18.93 474.05 18.93H473.49C473.08 18.93 472.74 18.59 472.74 18.18C472.74 17.77 473.08 17.43 473.49 17.43H528.79V84.53H550.51V23.67C550.51 22.26 550.08 21.11 549.23 20.24C548.38 19.37 547.24 18.93 545.83 18.93H545.27C544.86 18.93 544.52 18.59 544.52 18.18C544.52 17.77 544.86 17.43 545.27 17.43H575.48V0.26001H431.92Z" fill="#F95300"/>
<path d="M56.13 0.0499878H0V84.39H56.13C65.53 84.39 72.67 81.96 77.54 77.09C82.41 72.22 84.84 65.09 84.84 55.68V28.76C84.84 19.36 82.41 12.22 77.54 7.34999C72.67 2.47999 65.53 0.0499878 56.13 0.0499878ZM62.38 55.68C62.38 63.17 58.63 66.92 51.14 66.92H22.47V17.53H51.14C58.63 17.53 62.38 21.28 62.38 28.77V55.69V55.68Z" fill="white"/>
<path d="M1.66008 111.32V121.61H11.4901V122.94H1.66008V133.3H12.5501V134.63H0.0800781V109.97H12.5501V111.3H1.66008V111.32Z" fill="white"/>
<path d="M34.95 117.27C36.38 118.66 37.09 120.73 37.09 123.47V134.64H35.54V123.58C35.54 121.31 34.97 119.57 33.82 118.36C32.67 117.15 31.12 116.55 29.15 116.55C27.18 116.55 25.45 117.21 24.22 118.52C22.99 119.83 22.38 121.77 22.38 124.35V134.64H20.8V115.57H22.38V119.61C22.92 118.18 23.81 117.09 25.07 116.33C26.32 115.57 27.77 115.19 29.41 115.19C31.68 115.19 33.53 115.89 34.96 117.28L34.95 117.27Z" fill="white"/>
<path d="M59.5001 116.78C60.9101 117.75 61.8901 119 62.4501 120.52V115.57H64.0301V135.24C64.0301 137 63.6401 138.54 62.8701 139.86C62.1001 141.18 61.0601 142.2 59.7401 142.92C58.4301 143.63 56.9701 143.99 55.3501 143.99C52.9601 143.99 50.9801 143.42 49.4101 142.27C47.8401 141.12 46.8101 139.58 46.3201 137.63H47.9001C48.3701 139.15 49.2501 140.36 50.5301 141.27C51.8201 142.17 53.4201 142.62 55.3401 142.62C56.6701 142.62 57.8801 142.32 58.9601 141.72C60.0401 141.12 60.8901 140.27 61.5101 139.16C62.1301 138.05 62.4401 136.74 62.4401 135.24V129.66C61.8801 131.18 60.8901 132.44 59.4701 133.44C58.0501 134.44 56.3501 134.93 54.3601 134.93C52.5801 134.93 50.9901 134.53 49.6001 133.72C48.2101 132.91 47.1201 131.77 46.3301 130.28C45.5401 128.79 45.1501 127.07 45.1501 125.1C45.1501 123.13 45.5401 121.41 46.3301 119.94C47.1101 118.46 48.2001 117.33 49.6001 116.53C50.9901 115.73 52.5801 115.34 54.3601 115.34C56.3701 115.34 58.0801 115.83 59.4901 116.8L59.5001 116.78ZM61.4201 120.68C60.7301 119.4 59.7901 118.42 58.5901 117.73C57.4001 117.04 56.0601 116.69 54.5901 116.69C53.1201 116.69 51.6901 117.02 50.5201 117.69C49.3501 118.36 48.4401 119.32 47.7801 120.59C47.1201 121.85 46.8001 123.35 46.8001 125.09C46.8001 126.83 47.1301 128.32 47.7801 129.59C48.4301 130.85 49.3501 131.83 50.5401 132.51C51.7201 133.19 53.0701 133.53 54.6001 133.53C56.1301 133.53 57.4201 133.19 58.6201 132.49C59.8301 131.8 60.7701 130.82 61.4501 129.54C62.1301 128.26 62.4701 126.78 62.4701 125.1C62.4701 123.42 62.1201 121.97 61.4301 120.69L61.4201 120.68Z" fill="white"/>
<path d="M90.3701 125.72H73.9001C73.9501 127.43 74.3201 128.87 75.0201 130.04C75.7201 131.21 76.6501 132.09 77.7901 132.67C78.9401 133.26 80.1901 133.55 81.5501 133.55C83.4201 133.55 84.9901 133.09 86.2601 132.16C87.5201 131.24 88.3201 129.98 88.6501 128.38H90.3001C89.9301 130.32 88.9701 131.9 87.4201 133.1C85.8701 134.31 83.9201 134.91 81.5501 134.91C79.7701 134.91 78.1801 134.51 76.7701 133.72C75.3601 132.92 74.2601 131.78 73.4701 130.3C72.6701 128.81 72.2801 127.07 72.2801 125.08C72.2801 123.09 72.6701 121.36 73.4601 119.88C74.2401 118.41 75.3401 117.28 76.7401 116.49C78.1501 115.71 79.7501 115.31 81.5501 115.31C83.3501 115.31 84.9601 115.7 86.3101 116.49C87.6601 117.28 88.6801 118.32 89.3801 119.62C90.0801 120.92 90.4301 122.32 90.4301 123.82C90.4301 124.66 90.4101 125.3 90.3601 125.72H90.3701ZM87.9701 120.13C87.3001 118.96 86.3901 118.09 85.2501 117.51C84.1001 116.94 82.8601 116.65 81.5301 116.65C80.2001 116.65 78.9601 116.94 77.8201 117.51C76.6801 118.08 75.7601 118.96 75.0501 120.13C74.3401 121.3 73.9501 122.73 73.9101 124.41H88.8701C88.9401 122.72 88.6401 121.3 87.9701 120.13Z" fill="white"/>
<path d="M112.85 117.27C114.28 118.66 114.99 120.73 114.99 123.47V134.64H113.44V123.58C113.44 121.31 112.87 119.57 111.72 118.36C110.57 117.15 109.02 116.55 107.05 116.55C105.08 116.55 103.35 117.21 102.12 118.52C100.89 119.83 100.28 121.77 100.28 124.35V134.64H98.7001V115.57H100.28V119.61C100.82 118.18 101.71 117.09 102.97 116.33C104.22 115.57 105.67 115.19 107.31 115.19C109.58 115.19 111.43 115.89 112.86 117.28L112.85 117.27Z" fill="white"/>
<path d="M138.21 117.27C139.64 118.66 140.35 120.73 140.35 123.47V134.64H138.8V123.58C138.8 121.31 138.23 119.57 137.08 118.36C135.93 117.15 134.38 116.55 132.41 116.55C130.44 116.55 128.71 117.21 127.48 118.52C126.25 119.83 125.64 121.77 125.64 124.35V134.64H124.06V108.65H125.64V119.61C126.18 118.18 127.08 117.09 128.34 116.33C129.6 115.57 131.06 115.19 132.69 115.19C134.94 115.19 136.78 115.89 138.2 117.28L138.21 117.27Z" fill="white"/>
<path d="M149.61 119.92C150.39 118.44 151.48 117.31 152.88 116.51C154.27 115.71 155.86 115.32 157.64 115.32C159.65 115.32 161.36 115.81 162.77 116.79C164.18 117.77 165.16 119.03 165.72 120.55V115.56H167.3V134.63H165.72V129.61C165.16 131.16 164.17 132.43 162.75 133.42C161.33 134.42 159.63 134.91 157.64 134.91C155.86 134.91 154.27 134.51 152.88 133.7C151.49 132.89 150.4 131.75 149.61 130.26C148.82 128.77 148.43 127.05 148.43 125.08C148.43 123.11 148.82 121.39 149.61 119.92ZM164.68 120.68C163.99 119.4 163.05 118.42 161.85 117.73C160.66 117.04 159.32 116.69 157.85 116.69C156.38 116.69 154.95 117.02 153.78 117.69C152.61 118.36 151.7 119.32 151.04 120.59C150.38 121.85 150.06 123.35 150.06 125.09C150.06 126.83 150.39 128.32 151.04 129.59C151.69 130.85 152.61 131.83 153.8 132.51C154.98 133.19 156.33 133.53 157.86 133.53C159.39 133.53 160.68 133.19 161.88 132.49C163.09 131.8 164.03 130.82 164.71 129.54C165.39 128.26 165.73 126.78 165.73 125.1C165.73 123.42 165.38 121.97 164.69 120.69L164.68 120.68Z" fill="white"/>
<path d="M180.61 116.29C181.8 115.55 183.33 115.18 185.18 115.18V116.83H184.65C182.78 116.83 181.22 117.36 179.98 118.43C178.74 119.5 178.12 121.23 178.12 123.65V134.64H176.54V115.57H178.12V119.5C178.59 118.1 179.42 117.02 180.61 116.29Z" fill="white"/>
<path d="M192.16 110.95C191.9 110.7 191.77 110.37 191.77 109.95C191.77 109.55 191.9 109.22 192.16 108.97C192.42 108.71 192.73 108.58 193.11 108.58C193.49 108.58 193.8 108.71 194.06 108.97C194.32 109.23 194.45 109.56 194.45 109.95C194.45 110.37 194.32 110.7 194.06 110.95C193.8 111.2 193.49 111.32 193.11 111.32C192.73 111.32 192.42 111.2 192.16 110.95ZM193.88 115.57V134.64H192.3V115.57H193.88Z" fill="white"/>
<path d="M203.35 119.92C204.13 118.44 205.22 117.31 206.62 116.51C208.01 115.71 209.6 115.32 211.38 115.32C213.39 115.32 215.1 115.81 216.51 116.79C217.92 117.77 218.9 119.03 219.46 120.55V115.56H221.04V134.63H219.46V129.61C218.9 131.16 217.91 132.43 216.49 133.42C215.07 134.42 213.37 134.91 211.38 134.91C209.6 134.91 208.01 134.51 206.62 133.7C205.23 132.89 204.14 131.75 203.35 130.26C202.56 128.77 202.17 127.05 202.17 125.08C202.17 123.11 202.56 121.39 203.35 119.92ZM218.41 120.68C217.72 119.4 216.78 118.42 215.58 117.73C214.39 117.04 213.05 116.69 211.58 116.69C210.11 116.69 208.68 117.02 207.51 117.69C206.34 118.36 205.43 119.32 204.77 120.59C204.11 121.85 203.79 123.35 203.79 125.09C203.79 126.83 204.12 128.32 204.77 129.59C205.42 130.85 206.34 131.83 207.53 132.51C208.71 133.19 210.06 133.53 211.59 133.53C213.12 133.53 214.41 133.19 215.61 132.49C216.82 131.8 217.76 130.82 218.44 129.54C219.12 128.26 219.46 126.78 219.46 125.1C219.46 123.42 219.11 121.97 218.42 120.69L218.41 120.68Z" fill="white"/>
</svg>
