<?xml version="1.0" encoding="UTF-8"?>
<svg id="Layer_2" data-name="Layer 2" xmlns="http://www.w3.org/2000/svg" viewBox="0 0 841.89 595.27">
  <defs>
    <style>
      .cls-1 {
        fill: #252526;
        stroke-width: 0px;
      }
    </style>
  </defs>
  <path class="cls-1" d="M769.28,223.66h19.34v-10.99H53.26v10.99h16.07v41.75h-16.07v10.99h16.07v41.88h-16.07v10.99h16.07v41.75h-16.07v10.99h16.07v42.96h13.91v-38.97c0-.91-.27-1.64-.82-2.2-.55-.56-1.27-.84-2.18-.84h-.36c-.26,0-.48-.21-.48-.48s.21-.48.48-.48h35.41v42.96h13.91v-38.97c0-.91-.27-1.64-.82-2.2-.55-.56-1.27-.84-2.18-.84h-.36c-.26,0-.48-.21-.48-.48s.21-.48.48-.48h19.34v-10.99h-15.99v-37.75c0-.91-.27-1.64-.82-2.2-.55-.56-1.27-.84-2.18-.84h-.36c-.27,0-.48-.21-.48-.48s.21-.48.48-.48h35.41v41.75h-16.07v10.99h16.07v42.96h13.91v-38.97c0-.91-.27-1.64-.82-2.2-.55-.56-1.27-.84-2.18-.84h-.36c-.26,0-.48-.21-.48-.48s.21-.48.48-.48h35.41v42.96h13.91v-38.97c0-.91-.27-1.64-.82-2.2-.55-.56-1.27-.84-2.18-.84h-.36c-.26,0-.48-.21-.48-.48s.21-.48.48-.48h19.34v-10.99h-15.99v-37.75c0-.91-.27-1.64-.82-2.2-.55-.56-1.27-.84-2.18-.84h-.36c-.26,0-.48-.21-.48-.48s.21-.48.48-.48h35.41v41.75h-16.07v10.99h16.07v42.96h13.91v-38.97c0-.91-.27-1.64-.82-2.2-.55-.56-1.27-.84-2.18-.84h-.36c-.26,0-.48-.21-.48-.48s.21-.48.48-.48h35.41v42.96h13.91v-38.97c0-.91-.27-1.64-.82-2.2-.55-.56-1.27-.84-2.18-.84h-.36c-.26,0-.48-.21-.48-.48s.21-.48.48-.48h35.41v42.96h13.91v-38.97c0-.91-.27-1.64-.82-2.2-.55-.56-1.27-.84-2.18-.84h-.36c-.26,0-.48-.21-.48-.48s.21-.48.48-.48h35.41v42.96h13.91v-38.97c0-.91-.27-1.64-.82-2.2-.55-.56-1.27-.84-2.18-.84h-.36c-.26,0-.48-.21-.48-.48s.21-.48.48-.48h19.34v-10.99h-15.99v-37.75c0-.91-.27-1.64-.82-2.2-.55-.56-1.27-.84-2.18-.84h-.36c-.26,0-.48-.21-.48-.48s.21-.48.48-.48h35.41v41.75h-16.07v10.99h16.07v42.96h13.91v-38.97c0-.91-.27-1.64-.82-2.2-.55-.56-1.27-.84-2.18-.84h-.36c-.27,0-.48-.21-.48-.48s.21-.48.48-.48h35.41v42.96h13.91v-38.97c0-.91-.27-1.64-.82-2.2-.55-.56-1.27-.84-2.18-.84h-.36c-.26,0-.48-.21-.48-.48s.21-.48.48-.48h19.34v-10.99h-15.99v-37.75c0-.91-.27-1.64-.82-2.2-.55-.56-1.27-.84-2.18-.84h-.36c-.26,0-.48-.21-.48-.48s.21-.48.48-.48h35.41v41.75h-16.07v10.99h16.07v42.96h13.91v-38.97c0-.91-.27-1.64-.82-2.2-.55-.56-1.27-.84-2.18-.84h-.36c-.26,0-.48-.21-.48-.48s.21-.48.48-.48h35.41v42.96h13.91v-38.97c0-.91-.27-1.64-.82-2.2-.55-.56-1.27-.84-2.18-.84h-.36c-.26,0-.48-.21-.48-.48s.21-.48.48-.48h19.34v-10.99h-15.99v-37.75c0-.91-.27-1.64-.82-2.2-.55-.56-1.27-.84-2.18-.84h-.36c-.26,0-.48-.21-.48-.48s.21-.48.48-.48h35.41v41.75h-16.07v10.99h16.07v42.96h13.91v-38.97c0-.91-.27-1.64-.82-2.2-.55-.56-1.27-.84-2.18-.84h-.36c-.26,0-.48-.21-.48-.48s.21-.48.48-.48h35.41v42.96h13.91v-38.97c0-.91-.27-1.64-.82-2.2-.55-.56-1.27-.84-2.18-.84h-.36c-.26,0-.48-.21-.48-.48s.21-.48.48-.48h35.41v42.96h13.91v-38.97c0-.91-.27-1.64-.82-2.2-.55-.56-1.27-.84-2.18-.84h-.36c-.26,0-.48-.21-.48-.48s.21-.48.48-.48h35.41v42.96h13.91v-38.97c0-.91-.27-1.64-.82-2.2-.55-.56-1.27-.84-2.18-.84h-.36c-.26,0-.48-.21-.48-.48s.21-.48.48-.48h19.34v-10.99h-15.99v-37.75c0-.91-.27-1.64-.82-2.2-.55-.56-1.27-.84-2.18-.84h-.36c-.26,0-.48-.21-.48-.48s.21-.48.48-.48h19.34v-10.99h-15.99v-37.88c0-.91-.27-1.64-.82-2.2-.55-.56-1.27-.84-2.18-.84h-.36c-.26,0-.48-.21-.48-.48s.21-.48.48-.48h19.34v-10.99h-15.99v-37.75c0-.91-.27-1.64-.82-2.2-.55-.56-1.27-.84-2.18-.84h-.36c-.26,0-.48-.21-.48-.48s.21-.48.48-.48ZM712.77,223.66v41.75h-32.05v-37.75c0-.91-.27-1.64-.82-2.2-.55-.56-1.27-.84-2.18-.84h-.36c-.26,0-.48-.21-.48-.48s.21-.48.48-.48h35.41ZM712.77,318.27h-32.05v-37.88c0-.91-.27-1.64-.82-2.2-.55-.56-1.27-.84-2.18-.84h-.36c-.26,0-.48-.21-.48-.48s.21-.48.48-.48h35.41v41.88ZM725.86,278.19c-.55-.56-1.27-.84-2.18-.84h-.36c-.26,0-.48-.21-.48-.48s.21-.48.48-.48h35.41v41.88h-32.05v-37.88c0-.91-.27-1.64-.82-2.2ZM633.94,225.46c-.55-.56-1.27-.84-2.18-.84h-.36c-.26,0-.48-.21-.48-.48s.21-.48.48-.48h35.41v41.75h-32.05v-37.75c0-.91-.27-1.64-.82-2.2ZM633.94,278.19c-.55-.56-1.27-.84-2.18-.84h-.36c-.26,0-.48-.21-.48-.48s.21-.48.48-.48h35.41v41.88h-32.05v-37.88c0-.91-.27-1.64-.82-2.2ZM605.87,213.75h89.75v8.82h-18.26c-.86,0-1.57.7-1.57,1.57s.7,1.57,1.57,1.57h.36c.61,0,1.06.16,1.4.51.34.35.51.82.51,1.44v37.75h-11.73v-41.75c0-.6-.49-1.09-1.09-1.09h-35.41c-.86,0-1.57.7-1.57,1.57s.7,1.57,1.57,1.57h.36c.61,0,1.06.16,1.4.51.34.35.51.82.51,1.44v37.75h-11.73v-41.75c0-.6-.49-1.09-1.09-1.09h-14.98v-8.82ZM539.48,223.66h35.41v41.75h-32.05v-37.75c0-.91-.27-1.64-.82-2.2-.55-.56-1.27-.84-2.18-.84h-.36c-.27,0-.48-.21-.48-.48s.21-.48.48-.48ZM585.44,278.44h.36c.61,0,1.06.16,1.4.51.34.35.51.82.51,1.44v37.88h-11.73v-41.88c0-.6-.49-1.09-1.09-1.09h-35.41c-.86,0-1.57.7-1.57,1.57s.7,1.57,1.57,1.57h.36c.61,0,1.06.16,1.4.51.34.35.51.82.51,1.44v37.88h-11.73v-41.88c0-.6-.49-1.09-1.09-1.09h-14.98v-8.82h89.75v8.82h-18.26c-.86,0-1.57.7-1.57,1.57s.7,1.57,1.57,1.57ZM542.02,278.19c-.55-.56-1.27-.84-2.18-.84h-.36c-.26,0-.48-.21-.48-.48s.21-.48.48-.48h35.41v41.88h-32.05v-37.88c0-.91-.27-1.64-.82-2.2ZM422.03,213.75h89.75v8.82h-18.26c-.86,0-1.57.7-1.57,1.57s.7,1.57,1.57,1.57h.36c.61,0,1.06.16,1.4.51.34.35.51.82.51,1.44v37.75h-11.73v-41.75c0-.6-.49-1.09-1.09-1.09h-35.41c-.86,0-1.57.7-1.57,1.57s.7,1.57,1.57,1.57h.36c.61,0,1.06.16,1.4.51.34.35.51.82.51,1.44v37.75h-11.73v-41.75c0-.6-.49-1.09-1.09-1.09h-14.98v-8.82ZM466.9,318.27h-15.99v-37.88c0-.91-.27-1.64-.82-2.2-.55-.56-1.27-.84-2.18-.84h-.36c-.27,0-.48-.21-.48-.48s.21-.48.48-.48h35.41v41.88h-16.07ZM450.1,225.46c-.55-.56-1.27-.84-2.18-.84h-.36c-.26,0-.48-.21-.48-.48s.21-.48.48-.48h35.41v41.75h-32.05v-37.75c0-.91-.27-1.64-.82-2.2ZM355.64,223.66h35.41v41.75h-32.05v-37.75c0-.91-.27-1.64-.82-2.2-.55-.56-1.27-.84-2.18-.84h-.36c-.27,0-.48-.21-.48-.48s.21-.48.48-.48ZM401.6,278.44h.36c.61,0,1.06.16,1.4.51.34.35.51.82.51,1.44v37.88h-11.73v-41.88c0-.6-.49-1.09-1.09-1.09h-35.41c-.86,0-1.57.7-1.57,1.57s.7,1.57,1.57,1.57h.36c.61,0,1.06.16,1.4.51.34.35.51.82.51,1.44v37.88h-11.73v-41.88c0-.6-.49-1.09-1.09-1.09h-14.98v-8.82h89.75v8.82h-18.26c-.86,0-1.57.7-1.57,1.57s.7,1.57,1.57,1.57ZM266.26,225.46c-.55-.56-1.27-.84-2.18-.84h-.36c-.26,0-.48-.21-.48-.48s.21-.48.48-.48h35.41v41.75h-32.05v-37.75c0-.91-.27-1.64-.82-2.2ZM266.26,278.19c-.55-.56-1.27-.84-2.18-.84h-.36c-.26,0-.48-.21-.48-.48s.21-.48.48-.48h35.41v41.88h-32.05v-37.88c0-.91-.27-1.64-.82-2.2ZM312.22,278.19c-.55-.56-1.27-.84-2.18-.84h-.36c-.26,0-.48-.21-.48-.48s.21-.48.48-.48h35.41v41.88h-32.05v-37.88c0-.91-.27-1.64-.82-2.2ZM358.18,278.19c-.55-.56-1.27-.84-2.18-.84h-.36c-.26,0-.48-.21-.48-.48s.21-.48.48-.48h35.41v41.88h-32.05v-37.88c0-.91-.27-1.64-.82-2.2ZM345.09,223.66v41.75h-32.05v-37.75c0-.91-.27-1.64-.82-2.2-.55-.56-1.27-.84-2.18-.84h-.36c-.27,0-.48-.21-.48-.48s.21-.48.48-.48h35.41ZM238.19,213.75h89.75v8.82h-18.26c-.86,0-1.57.7-1.57,1.57s.7,1.57,1.57,1.57h.36c.61,0,1.06.16,1.4.51.34.35.51.82.51,1.44v37.75h-11.73v-41.75c0-.6-.49-1.09-1.09-1.09h-35.41c-.86,0-1.57.7-1.57,1.57s.7,1.57,1.57,1.57h.36c.61,0,1.06.16,1.4.51.34.35.51.82.51,1.44v37.75h-11.73v-41.75c0-.6-.49-1.09-1.09-1.09h-14.98v-8.82ZM171.8,223.66h35.41v41.75h-32.05v-37.75c0-.91-.27-1.64-.82-2.2-.55-.56-1.27-.84-2.18-.84h-.36c-.26,0-.48-.21-.48-.48s.21-.48.48-.48ZM217.76,278.44h.36c.61,0,1.06.16,1.4.51.34.35.51.82.51,1.44v37.88h-11.73v-41.88c0-.6-.49-1.09-1.09-1.09h-35.41c-.86,0-1.57.7-1.57,1.57s.7,1.57,1.57,1.57h.36c.61,0,1.06.16,1.4.51.34.35.51.82.51,1.44v37.88h-11.73v-41.88c0-.6-.49-1.09-1.09-1.09h-14.98v-8.82h89.75v8.82h-18.26c-.86,0-1.57.7-1.57,1.57s.7,1.57,1.57,1.57ZM174.34,278.19c-.55-.56-1.27-.84-2.18-.84h-.36c-.26,0-.48-.21-.48-.48s.21-.48.48-.48h35.41v41.88h-32.05v-37.88c0-.91-.27-1.64-.82-2.2ZM69.33,222.57h-14.98v-8.82h89.75v8.82h-18.26c-.86,0-1.57.7-1.57,1.57s.7,1.57,1.57,1.57h.36c.61,0,1.06.16,1.4.51.34.35.51.82.51,1.44v37.75h-11.73v-41.75c0-.6-.49-1.09-1.09-1.09h-35.41c-.86,0-1.57.7-1.57,1.57s.7,1.57,1.57,1.57h.36c.61,0,1.06.16,1.4.51.34.35.51.82.51,1.44v37.75h-11.73v-41.75c0-.6-.49-1.09-1.09-1.09ZM82.42,225.46c-.55-.56-1.27-.84-2.18-.84h-.36c-.26,0-.48-.21-.48-.48s.21-.48.48-.48h35.41v41.75h-32.05v-37.75c0-.91-.27-1.64-.82-2.2ZM82.42,278.19c-.55-.56-1.27-.84-2.18-.84h-.36c-.26,0-.48-.21-.48-.48s.21-.48.48-.48h35.41v41.88h-32.05v-37.88c0-.91-.27-1.64-.82-2.2ZM99.22,371.01h-15.99v-37.75c0-.91-.27-1.64-.82-2.2-.55-.56-1.27-.84-2.18-.84h-.36c-.26,0-.48-.21-.48-.48s.21-.48.48-.48h35.41v41.75h-16.07ZM144.09,328.17h-18.26c-.86,0-1.57.7-1.57,1.57s.7,1.57,1.57,1.57h.36c.61,0,1.06.16,1.4.51.34.35.51.82.51,1.44v37.75h-11.73v-41.75c0-.6-.49-1.09-1.09-1.09h-35.41c-.86,0-1.57.7-1.57,1.57s.7,1.57,1.57,1.57h.36c.61,0,1.06.16,1.4.51.34.35.51.82.51,1.44v37.75h-11.73v-41.75c0-.6-.49-1.09-1.09-1.09h-14.98v-8.82h89.75v8.82ZM145.18,318.27h-15.99v-37.88c0-.91-.27-1.64-.82-2.2-.55-.56-1.27-.84-2.18-.84h-.36c-.26,0-.48-.21-.48-.48s.21-.48.48-.48h19.34v-10.99h-15.99v-37.75c0-.91-.27-1.64-.82-2.2-.55-.56-1.27-.84-2.18-.84h-.36c-.27,0-.48-.21-.48-.48s.21-.48.48-.48h35.41v41.75h-16.07v10.99h16.07v41.88h-16.07ZM236.02,372.1v8.82h-18.26c-.86,0-1.57.7-1.57,1.57s.7,1.57,1.57,1.57h.36c.61,0,1.06.16,1.4.51.34.35.51.82.51,1.44v37.88h-11.73v-41.88c0-.6-.49-1.09-1.09-1.09h-35.41c-.86,0-1.57.7-1.57,1.57s.7,1.57,1.57,1.57h.36c.61,0,1.06.16,1.4.51.34.35.51.82.51,1.44v37.88h-11.73v-41.88c0-.6-.49-1.09-1.09-1.09h-14.98v-8.82h89.75ZM191.14,371.01h-15.99v-37.75c0-.91-.27-1.64-.82-2.2-.55-.56-1.27-.84-2.18-.84h-.36c-.26,0-.48-.21-.48-.48s.21-.48.48-.48h35.41v41.75h-16.07ZM221.12,318.27v-37.88c0-.91-.27-1.64-.82-2.2-.55-.56-1.27-.84-2.18-.84h-.36c-.26,0-.48-.21-.48-.48s.21-.48.48-.48h19.34v-10.99h-15.99v-37.75c0-.91-.27-1.64-.82-2.2-.55-.56-1.27-.84-2.18-.84h-.36c-.26,0-.48-.21-.48-.48s.21-.48.48-.48h35.41v41.75h-16.07v10.99h16.07v41.88h-32.05ZM253.17,328.17h-14.98v-8.82h89.75v8.82h-18.26c-.86,0-1.57.7-1.57,1.57s.7,1.57,1.57,1.57h.36c.61,0,1.06.16,1.4.51.34.35.51.82.51,1.44v37.75h-11.73v-41.75c0-.6-.49-1.09-1.09-1.09h-35.41c-.86,0-1.57.7-1.57,1.57s.7,1.57,1.57,1.57h.36c.61,0,1.06.16,1.4.51.34.35.51.82.51,1.44v37.75h-11.73v-41.75c0-.6-.49-1.09-1.09-1.09ZM283.06,371.01h-15.99v-37.75c0-.91-.27-1.64-.82-2.2-.55-.56-1.27-.84-2.18-.84h-.36c-.26,0-.48-.21-.48-.48s.21-.48.48-.48h35.41v41.75h-16.07ZM313.04,371.01v-37.75c0-.91-.27-1.64-.82-2.2-.55-.56-1.27-.84-2.18-.84h-.36c-.27,0-.48-.21-.48-.48s.21-.48.48-.48h35.41v41.75h-32.05ZM419.86,372.1v8.82h-18.26c-.86,0-1.57.7-1.57,1.57s.7,1.57,1.57,1.57h.36c.61,0,1.06.16,1.4.51.34.35.51.82.51,1.44v37.88h-11.73v-41.88c0-.6-.49-1.09-1.09-1.09h-35.41c-.86,0-1.57.7-1.57,1.57s.7,1.57,1.57,1.57h.36c.61,0,1.06.16,1.4.51.34.35.51.82.51,1.44v37.88h-11.73v-41.88c0-.6-.49-1.09-1.09-1.09h-14.98v-8.82h89.75ZM374.98,371.01h-15.99v-37.75c0-.91-.27-1.64-.82-2.2-.55-.56-1.27-.84-2.18-.84h-.36c-.27,0-.48-.21-.48-.48s.21-.48.48-.48h35.41v41.75h-16.07ZM404.96,318.27v-37.88c0-.91-.27-1.64-.82-2.2-.55-.56-1.27-.84-2.18-.84h-.36c-.26,0-.48-.21-.48-.48s.21-.48.48-.48h19.34v-10.99h-15.99v-37.75c0-.91-.27-1.64-.82-2.2-.55-.56-1.27-.84-2.18-.84h-.36c-.26,0-.48-.21-.48-.48s.21-.48.48-.48h35.41v41.75h-16.07v10.99h16.07v41.88h-32.05ZM466.9,371.01h-15.99v-37.75c0-.91-.27-1.64-.82-2.2-.55-.56-1.27-.84-2.18-.84h-.36c-.26,0-.48-.21-.48-.48s.21-.48.48-.48h35.41v41.75h-16.07ZM511.78,328.17h-18.26c-.86,0-1.57.7-1.57,1.57s.7,1.57,1.57,1.57h.36c.61,0,1.06.16,1.4.51.34.35.51.82.51,1.44v37.75h-11.73v-41.75c0-.6-.49-1.09-1.09-1.09h-35.41c-.86,0-1.57.7-1.57,1.57s.7,1.57,1.57,1.57h.36c.61,0,1.06.16,1.4.51.34.35.51.82.51,1.44v37.75h-11.73v-41.75c0-.6-.49-1.09-1.09-1.09h-14.98v-8.82h89.75v8.82ZM512.87,318.27h-15.99v-37.88c0-.91-.27-1.64-.82-2.2-.55-.56-1.27-.84-2.18-.84h-.36c-.26,0-.48-.21-.48-.48s.21-.48.48-.48h19.34v-10.99h-15.99v-37.75c0-.91-.27-1.64-.82-2.2-.55-.56-1.27-.84-2.18-.84h-.36c-.26,0-.48-.21-.48-.48s.21-.48.48-.48h35.41v41.75h-16.07v10.99h16.07v41.88h-16.07ZM603.7,372.1v8.82h-18.26c-.86,0-1.57.7-1.57,1.57s.7,1.57,1.57,1.57h.36c.61,0,1.06.16,1.4.51.34.35.51.82.51,1.44v37.88h-11.73v-41.88c0-.6-.49-1.09-1.09-1.09h-35.41c-.86,0-1.57.7-1.57,1.57s.7,1.57,1.57,1.57h.36c.61,0,1.06.16,1.4.51.34.35.51.82.51,1.44v37.88h-11.73v-41.88c0-.6-.49-1.09-1.09-1.09h-14.98v-8.82h89.75ZM558.83,371.01h-15.99v-37.75c0-.91-.27-1.64-.82-2.2-.55-.56-1.27-.84-2.18-.84h-.36c-.27,0-.48-.21-.48-.48s.21-.48.48-.48h35.41v41.75h-16.07ZM588.8,318.27v-37.88c0-.91-.27-1.64-.82-2.2-.55-.56-1.27-.84-2.18-.84h-.36c-.26,0-.48-.21-.48-.48s.21-.48.48-.48h19.34v-10.99h-15.99v-37.75c0-.91-.27-1.64-.82-2.2-.55-.56-1.27-.84-2.18-.84h-.36c-.26,0-.48-.21-.48-.48s.21-.48.48-.48h35.41v41.75h-16.07v10.99h16.07v41.88h-32.05ZM620.85,328.17h-14.98v-8.82h89.75v8.82h-18.26c-.86,0-1.57.7-1.57,1.57s.7,1.57,1.57,1.57h.36c.61,0,1.06.16,1.4.51.34.35.51.82.51,1.44v37.75h-11.73v-41.75c0-.6-.49-1.09-1.09-1.09h-35.41c-.86,0-1.57.7-1.57,1.57s.7,1.57,1.57,1.57h.36c.61,0,1.06.16,1.4.51.34.35.51.82.51,1.44v37.75h-11.73v-41.75c0-.6-.49-1.09-1.09-1.09ZM650.75,371.01h-15.99v-37.75c0-.91-.27-1.64-.82-2.2-.55-.56-1.27-.84-2.18-.84h-.36c-.26,0-.48-.21-.48-.48s.21-.48.48-.48h35.41v41.75h-16.07ZM680.72,371.01v-37.75c0-.91-.27-1.64-.82-2.2-.55-.56-1.27-.84-2.18-.84h-.36c-.26,0-.48-.21-.48-.48s.21-.48.48-.48h35.41v41.75h-32.05ZM787.54,372.1v8.82h-18.26c-.86,0-1.57.7-1.57,1.57s.7,1.57,1.57,1.57h.36c.61,0,1.06.16,1.4.51.34.35.51.82.51,1.44v37.88h-11.73v-41.88c0-.6-.49-1.09-1.09-1.09h-35.41c-.86,0-1.57.7-1.57,1.57s.7,1.57,1.57,1.57h.36c.61,0,1.06.16,1.4.51.34.35.51.82.51,1.44v37.88h-11.73v-41.88c0-.6-.49-1.09-1.09-1.09h-14.98v-8.82h89.75ZM742.67,371.01h-15.99v-37.75c0-.91-.27-1.64-.82-2.2-.55-.56-1.27-.84-2.18-.84h-.36c-.26,0-.48-.21-.48-.48s.21-.48.48-.48h35.41v41.75h-16.07ZM787.54,266.49v8.82h-18.26c-.86,0-1.57.7-1.57,1.57s.7,1.57,1.57,1.57h.36c.61,0,1.06.16,1.4.51.34.35.51.82.51,1.44v37.88h-11.73v-41.88c0-.6-.49-1.09-1.09-1.09h-35.41c-.86,0-1.57.7-1.57,1.57s.7,1.57,1.57,1.57h.36c.61,0,1.06.16,1.4.51.34.35.51.82.51,1.44v37.88h-11.73v-41.88c0-.6-.49-1.09-1.09-1.09h-14.98v-8.82h89.75ZM742.67,265.4h-15.99v-37.75c0-.91-.27-1.64-.82-2.2-.55-.56-1.27-.84-2.18-.84h-.36c-.26,0-.48-.21-.48-.48s.21-.48.48-.48h35.41v41.75h-16.07Z"/>
</svg>