<?xml version="1.0" encoding="UTF-8"?>
<svg id="Layer_22" data-name="Layer 22" xmlns="http://www.w3.org/2000/svg" viewBox="0 0 841.89 595.27">
  <defs>
    <style>
      .cls-1 {
        fill: #f95300;
        stroke-width: 0px;
      }
    </style>
  </defs>
  <path class="cls-1" d="M602.2,100.11v110.29h-70.81c-10.23,0-18.55,8.32-18.55,18.56s8.32,18.56,18.55,18.56h8.38c19.19,0,34.06,5.66,45.43,17.31,11.43,11.72,16.99,26.78,16.99,46.03v199.07h-309.15V210.4h-111.62v-110.29h420.77M609.59,92.72H174.05v125.06h111.62v299.54h323.91v-206.46c0-21.09-6.37-38.16-19.09-51.19-12.73-13.03-29.63-19.54-50.72-19.54h-8.38c-6.17,0-11.17-5-11.17-11.17s5-11.17,11.17-11.17h78.19v-125.06h0Z"/>
</svg>