<svg width="659" height="85" viewBox="0 0 659 85" fill="none" xmlns="http://www.w3.org/2000/svg">
<path d="M265.56 64.99L224.23 0.0100098H198.55V84.34H222.72V38.97L243.87 76.99H287.25L308.4 38.97V84.34H332.56V0.0100098H306.89L265.56 64.99Z" fill="white"/>
<path d="M382.07 0.210022L348.99 84.54H373.33L383.67 68.21C385.93 64.64 389.85 62.47 394.07 62.44L406.6 62.35L415.77 84.54H440.11L407.03 0.210022H382.06H382.07ZM384.57 52.71L394.56 23.37L404.55 52.71H384.58H384.57Z" fill="white"/>
<path d="M122.49 0.00999451L89.41 84.34H113.75L124.08 68.02C126.35 64.44 130.27 62.26 134.51 62.23L147.02 62.14L156.19 84.33H180.53L147.45 0H122.48L122.49 0.00999451ZM124.98 52.5L134.97 23.16L144.96 52.5H124.99H124.98Z" fill="white"/>
<path d="M625.49 0.26001H600.52L567.44 84.59H591.78L602.12 68.26C604.38 64.69 608.3 62.52 612.52 62.49L625.05 62.4L634.22 84.59H658.56L625.48 0.26001H625.49ZM603.02 52.75L613.01 23.41L623 52.75H603.03H603.02Z" fill="white"/>
<path d="M431.92 0.26001V17.43H457.01V84.53H478.73V23.67C478.73 22.26 478.3 21.11 477.45 20.24C476.6 19.37 475.46 18.93 474.05 18.93H473.49C473.08 18.93 472.74 18.59 472.74 18.18C472.74 17.77 473.08 17.43 473.49 17.43H528.79V84.53H550.51V23.67C550.51 22.26 550.08 21.11 549.23 20.24C548.38 19.37 547.24 18.93 545.83 18.93H545.27C544.86 18.93 544.52 18.59 544.52 18.18C544.52 17.77 544.86 17.43 545.27 17.43H575.48V0.26001H431.92Z" fill="#F95300"/>
<path d="M431.92 0.26001V17.43H457.01V84.53H478.73V23.67C478.73 22.26 478.3 21.11 477.45 20.24C476.6 19.37 475.46 18.93 474.05 18.93H473.49C473.08 18.93 472.74 18.59 472.74 18.18C472.74 17.77 473.08 17.43 473.49 17.43H528.79V84.53H550.51V23.67C550.51 22.26 550.08 21.11 549.23 20.24C548.38 19.37 547.24 18.93 545.83 18.93H545.27C544.86 18.93 544.52 18.59 544.52 18.18C544.52 17.77 544.86 17.43 545.27 17.43H575.48V0.26001H431.92Z" fill="#F95300"/>
<path d="M56.13 0.0499878H0V84.39H56.13C65.53 84.39 72.67 81.96 77.54 77.09C82.41 72.22 84.84 65.09 84.84 55.68V28.76C84.84 19.36 82.41 12.22 77.54 7.34999C72.67 2.47999 65.53 0.0499878 56.13 0.0499878ZM62.38 55.68C62.38 63.17 58.63 66.92 51.14 66.92H22.47V17.53H51.14C58.63 17.53 62.38 21.28 62.38 28.77V55.69V55.68Z" fill="white"/>
</svg>
