<?xml version="1.0" encoding="UTF-8"?>
<svg id="Layer_24" data-name="Layer 24" xmlns="http://www.w3.org/2000/svg" viewBox="0 0 841.89 595.27">
  <defs>
    <style>
      .cls-1 {
        fill: #f95300;
        stroke-width: 0px;
      }
    </style>
  </defs>
  <polygon class="cls-1" points="694.37 261.48 501.64 261.48 340.83 184.59 270.35 261.48 174.54 261.48 174.54 212.9 248.97 212.9 329.33 125.24 512.66 212.9 694.37 212.9 694.37 261.48"/>
  <polygon class="cls-1" points="694.37 365.76 501.64 365.76 340.83 288.87 270.35 365.76 174.54 365.76 174.54 317.17 248.97 317.17 329.33 229.52 512.66 317.17 694.37 317.17 694.37 365.76"/>
  <polygon class="cls-1" points="694.37 470.03 501.64 470.03 340.83 393.14 270.35 470.03 174.54 470.03 174.54 421.45 248.97 421.45 329.33 333.79 512.66 421.45 694.37 421.45 694.37 470.03"/>
</svg>